<svg width="54" height="62" viewBox="0 0 54 62" fill="none" xmlns="http://www.w3.org/2000/svg">
<path d="M3.03125 2.67773C3.03125 6.31135 4.66571 8.71927 5.57495 11.9016C5.95615 13.2358 5.95308 15.8293 6.02663 17.2267C6.10522 18.7199 7.45541 20.3107 8.0711 21.696C9.45426 24.8081 10.5573 27.5481 12.0412 30.5158C12.3423 31.1181 13.0533 31.9083 13.5389 32.3938C14.1483 33.0033 14.2923 33.8754 14.9177 34.4383C15.9947 35.4076 16.6172 36.6133 17.6753 37.6714C18.1983 38.1943 19.26 38.1925 19.6247 38.8125C19.997 39.4453 20.2655 40.0388 21.0035 40.334C22.4406 40.9088 23.1483 42.6872 24.5933 43.3294C25.8499 43.8879 26.0068 45.5166 27.3271 45.9919C28.6743 46.4769 30.209 47.946 31.2734 48.8922C32.6802 50.1427 34.5189 50.9034 35.9567 52.1016C37.314 53.2327 38.7526 54.1393 40.426 54.883C43.9378 56.4438 46.216 57.4505 50.2917 57.4505C53.8753 57.4505 48.4465 56.6973 47.5341 55.929C46.7002 55.2268 43.4635 54.5142 42.3991 54.4551C40.2205 54.334 38.962 54.0686 37.0502 53.2189C36.3111 52.8904 35.0036 53.588 34.3639 53.0762C33.8365 52.6543 33.2449 52.39 32.5572 52.2917C31.4331 52.1312 28.359 51.9768 27.5173 51.3646C27.1276 51.0812 26.8757 51.0318 26.3762 51.0318C25.6391 51.0318 25.9648 50.5046 25.4729 50.2235C24.916 49.9053 24.363 49.5436 23.7612 49.225C23.3205 48.9917 22.5616 48.3223 22.2873 47.9413C21.1977 46.428 19.1654 45.5572 17.6278 44.4467C15.9274 43.2186 12.8065 41.9256 11.8034 40.12C10.3581 37.5184 8.16619 31.9659 8.16619 31.9659C8.16619 31.9659 12.9414 40.424 16.6769 43.3294C19.831 45.7826 22.5055 48.6644 25.8057 50.9367C29.2628 53.317 33.7721 55.1763 36.5035 58.2112C37.4014 59.2089 36.3995 58.7316 35.291 58.4965C30.9982 57.5859 26.5952 55.9804 22.2873 55.406C20.5927 55.18 15.5378 54.4551 17.2474 54.4551C19.9755 54.4551 22.6044 54.8239 25.2827 55.3109" stroke="white" stroke-width="5" stroke-linecap="round"/>
</svg>
