<svg width="68" height="71" viewBox="0 0 68 71" fill="none" xmlns="http://www.w3.org/2000/svg">
<path d="M2.62158 2.65625C2.62158 3.9445 3.20745 7.4616 4.00041 8.55192C5.24057 10.2571 4.59837 12.6651 5.61697 14.4476C6.16121 15.4 6.17676 16.5012 6.68674 17.4192C7.01327 18.007 6.84915 18.6054 6.9007 19.2497C6.95485 19.9265 7.71 19.7912 7.75652 20.6285C7.87795 22.8141 8.69187 25.2184 9.06403 27.4514C9.18302 28.1653 9.58697 29.1807 9.94363 29.8049C10.3661 30.5442 10.715 31.8151 11.2749 32.515C11.8062 33.1791 11.8173 34.1558 12.3685 34.8447C12.7894 35.371 13.6249 36.9957 13.7711 37.5073C14.3927 39.6829 16.1287 40.9471 17.2657 42.88C17.9222 43.9961 19.3115 43.8439 19.8331 44.8293C20.2383 45.5946 21.073 46.1969 21.8538 46.327C22.9559 46.5107 23.0721 48.0968 23.8508 48.4428C24.9701 48.9403 25.9676 49.2811 26.1805 50.5586C26.3366 51.4953 29.3966 53.9142 30.1981 54.3385C33.4941 56.0834 37.7659 58.1502 40.3729 60.7572C41.6158 62 44.2407 63.4208 46.0546 63.8239C48.3004 64.3229 49.8163 65.8586 52.2594 65.9872C54.7548 66.1185 57.2426 67.2709 59.7478 67.2709C61.2992 67.2709 61.875 67.5032 63.1711 68.0792C63.6029 68.2711 66.2161 68.6865 65.0967 68.1268" stroke="white" stroke-width="5" stroke-linecap="round"/>
</svg>
