<svg width="30" height="46" viewBox="0 0 30 46" fill="none" xmlns="http://www.w3.org/2000/svg">
<path d="M3.33325 2.64062C5.85983 2.79854 4.06615 9.76147 5.13999 11.1038C5.89098 12.0425 5.47281 15.0678 5.47281 11.8407C5.47281 10.9615 5.54909 8.16585 5.5679 8.20348C6.26024 9.58815 7.18446 10.7301 7.18446 12.2924C7.18446 15.6815 7.18446 12.1586 7.18446 10.771C7.18446 8.79924 7.89575 12.2097 8.01651 12.9343C8.24229 14.289 8.24595 15.7309 8.94365 16.9519C9.43846 17.8178 10.5396 19.3862 10.6078 20.6129C10.6842 21.9897 11.6067 22.6954 11.8677 23.8698C12.3961 26.2476 14.2417 29.3503 15.9329 31.5247C16.4279 32.1612 16.2685 33.2635 16.6936 33.7831C17.1307 34.3173 17.853 34.6652 18.4053 35.0668C19.1873 35.6356 19.8456 36.8887 20.8776 37.3015C22.2737 37.8599 21.9827 39.9093 23.2074 40.6297C24.7587 41.5423 24.8601 43.2923 26.8684 43.2923" stroke="white" stroke-width="5" stroke-linecap="round"/>
</svg>
