<svg width="28" height="57" viewBox="0 0 28 57" fill="none" xmlns="http://www.w3.org/2000/svg">
<path d="M24.6213 2.81641C24.6213 4.22171 24.3833 5.36258 24.2172 6.69139C23.9672 8.69075 23.6982 10.9024 23.2425 12.8961C22.7112 15.2203 22.4401 18.2012 21.5308 20.3608C20.9654 21.7038 20.3422 22.3165 20.3422 23.7841C20.3422 24.8114 19.9809 25.6431 19.5815 26.5417C19.1169 27.587 19.284 29.2473 19.0347 30.3692C18.7837 31.4985 17.8777 32.59 17.3943 33.4359C16.878 34.3394 17.0388 35.7227 16.3959 36.5264C15.9061 37.1385 14.9487 38.7031 14.7556 39.3791C14.2309 41.2154 13.0908 43.445 11.8077 44.942C11.1651 45.6917 10.8166 46.693 10.1674 47.4143C9.56098 48.0881 8.73418 48.3497 8.14669 49.0547C7.38345 49.9706 6.55031 50.651 5.69809 51.5033C4.80123 52.4001 4.31535 53.3486 3.22571 54.1658" stroke="white" stroke-width="5" stroke-linecap="round"/>
</svg>
