<svg width="78" height="77" viewBox="0 0 78 77" fill="none" xmlns="http://www.w3.org/2000/svg">
<path d="M3.48218 2.51562C3.48218 4.94046 3.48218 7.36529 3.48218 9.79013C3.48218 12.3017 5.62174 13.9041 5.62174 16.4228C5.62174 21.0174 8.46006 24.9986 11.0895 28.2854C12.3282 29.8338 11.7261 32.674 12.6823 34.3951C13.6936 36.2155 14.8897 38.2699 15.4875 40.3621C15.7488 41.2768 16.8972 41.659 17.1516 42.5492C17.4156 43.4731 17.935 44.5926 18.6493 45.3068C20.2389 46.8964 21.493 48.7085 22.8333 50.3467C23.8205 51.5532 25.1815 52.9099 26.3755 53.8651C27.4419 54.7182 28.4611 55.6018 29.4897 56.5276C30.2525 57.2141 31.2034 57.188 31.9383 58.1679C32.479 58.8889 36.02 61.4194 36.8593 61.5675C38.9923 61.9439 41.3242 63.7896 43.278 64.6579C45.4613 65.6283 48.1264 65.9041 50.5525 66.2507C51.9684 66.453 52.7511 67.4664 54.4037 67.5582C55.8057 67.6361 57.564 68.1608 58.8968 68.6518C62.0251 69.8043 64.5786 71.574 68.0018 71.8373C69.139 71.9248 70.3256 73.1211 71.7341 73.1211C72.9794 73.1211 74.1022 73.549 75.3714 73.549" stroke="white" stroke-width="5" stroke-linecap="round"/>
</svg>
