<svg width="32" height="59" viewBox="0 0 32 59" fill="none" xmlns="http://www.w3.org/2000/svg">
<path d="M24.0446 2.86523C24.0446 4.59996 24.6735 7.98069 23.8306 9.49787C23.0494 10.9041 23.45 12.9524 22.333 14.1811C21.6839 14.8951 21.2629 17.416 21.073 18.4602C19.9167 24.8199 16.676 30.3881 14.4404 36.4563C12.8736 40.709 9.52485 44.32 7.35604 48.2239C6.80744 49.2114 6.54851 50.5583 5.8108 51.4095C4.92766 52.4285 4.39979 52.6606 4.02784 54.0245C3.8869 54.5412 3.52301 54.7745 3.31465 55.2607C2.78631 56.4935 5.50109 53.7066 6.59531 52.9309C13.2897 48.1855 18.7136 41.5545 23.6167 35.0537C25.476 32.5885 26.6071 29.8193 28.2999 27.28C28.5987 26.8318 29.2116 24.6487 29.1795 25.4495C29.1078 27.2435 27.4979 28.9768 26.6121 30.4418C24.993 33.1195 22.988 35.6625 21.1443 38.1917C19.4636 40.4974 18.3205 43.157 16.5799 45.3949C16.311 45.7407 14.9548 48.188 15.1535 47.3681C16.3111 42.5933 17.9317 37.6508 19.5753 33.033C20.5066 30.4164 20.9504 27.5176 22.0001 24.974C22.6 23.5206 23.2109 22.6661 22.3092 24.8076C19.6739 31.0664 17.1868 37.407 13.323 43.089C12.1055 44.8794 10.7051 46.5428 9.68578 48.4616C9.24694 49.2877 10.2437 45.783 10.399 45.3949C12.6678 39.723 15.8423 34.6754 17.7923 28.8252C17.858 28.6283 18.8821 25.6253 18.9097 26.5906C18.9793 29.0284 18.9632 31.4999 18.8859 33.9364C18.7017 39.7383 17.178 47.1419 13.7747 52.0038C11.6941 54.9761 14.6307 49.967 15.0109 49.2699C15.8764 47.6832 16.6639 45.8293 17.3644 44.1587C17.7794 43.1691 18.0018 40.1798 18.4817 41.1396C18.9259 42.028 18.4817 44.2733 18.4817 45.2523C18.4817 47.3438 18.1324 49.3756 18.0538 51.457C18.0323 52.0274 17.3331 53.5961 17.6497 53.1211C18.0475 52.5244 18.2416 52.094 18.3867 51.3144C18.5143 50.6282 19.3376 45.4674 19.3376 48.1288C19.3376 48.601 19.0179 51.7542 19.2425 51.5521C22.0391 49.0352 23.1312 44.4273 24.8053 41.2347C24.9902 40.8821 26.5382 37.2186 26.8023 37.4072C27.6095 37.9838 26.3701 40.7834 26.1842 41.4724C26.038 42.0141 24.9004 47.757 24.9004 44.8006" stroke="white" stroke-width="5" stroke-linecap="round"/>
</svg>
