<svg width="66" height="67" viewBox="0 0 66 67" fill="none" xmlns="http://www.w3.org/2000/svg">
<path d="M3.33325 2.80469C3.49858 3.46599 4.18908 3.38512 4.18908 4.27861C4.18908 4.8658 4.2043 5.03056 4.5219 5.46725C4.89903 5.98581 5.0449 8.50911 5.0449 9.22337C5.0449 10.4011 5.47281 11.0964 5.47281 12.2187C5.47281 12.5854 5.92957 15.436 6.09091 15.547C7.17314 16.291 8.22421 19.9224 8.49197 21.3951C8.72026 22.6507 9.44552 23.6628 9.7757 24.8184C10.0427 25.753 10.2702 27.0781 10.7028 28.0515C10.9891 28.6955 11.1119 30.505 11.5587 30.9518C12.5332 31.9263 13.1087 32.5533 13.8171 33.8283C14.3417 34.7726 15.107 35.1732 15.7427 35.9679C16.2281 36.5746 16.9922 38.1713 17.5494 38.4165C19.6318 39.3327 20.2453 41.2388 21.9474 42.6005C22.3769 42.9441 22.6254 43.8267 22.9221 44.3121C23.2122 44.7868 23.8289 44.8443 24.2058 45.2631C24.6723 45.7813 24.8656 46.5409 25.3707 47.046C25.9711 47.6464 26.914 47.6723 27.5103 48.4011C29.0509 50.2841 31.549 51.5533 33.3822 53.2032C34.2611 53.9942 35.904 54.0106 36.7104 54.7722C37.8409 55.8399 39.0841 56.5401 40.5616 57.1733C43.3021 58.3478 45.9445 58.9374 48.787 59.8121C50.9086 60.4649 52.6829 61.8565 55.1106 61.8565C57.0441 61.8565 59.4234 62.9186 61.5293 63.1403C62.7885 63.2728 64.0716 64.8249 61.4342 63.8059C59.3579 63.0037 56.71 62.653 54.4687 62.3082C52.9179 62.0696 51.3292 61.1802 49.9281 61.0245C49.2662 60.9509 45.7536 61.4344 45.3637 60.8105C44.5285 59.4742 40.4536 59.2891 38.8499 59.2891" stroke="white" stroke-width="5" stroke-linecap="round"/>
</svg>
