<svg width="45" height="39" viewBox="0 0 45 39" fill="none" xmlns="http://www.w3.org/2000/svg">
<path d="M21.6079 4.25195C21.6079 6.05924 21.6731 8.17536 22.9154 9.62462C24.9902 12.0453 25.9452 15.2997 27.8364 17.7312C29.0157 19.2475 30.0909 20.6264 31.8777 21.3922C32.924 21.8406 33.6179 22.628 34.778 22.985C36.7404 23.5888 32.022 19.5255 31.6638 19.1575C28.3679 15.7725 25.4319 12.1485 21.703 9.14917C20.6562 8.30722 17.5171 6.25863 20.1577 8.55484C24.1881 12.0596 27.6032 16.6846 32.4721 18.8485C33.0112 19.0881 33.5203 19.6842 34.2075 19.9896C34.6114 20.1691 35.9444 20.5126 36.3708 20.5126C37.8654 20.5126 38.8184 22.9683 39.3662 24.1736C39.7625 25.0455 40.4433 25.2324 40.8164 25.8853C41.4905 27.065 35.9982 25.8024 35.6339 25.7426C32.4428 25.2195 29.3462 23.2003 26.2198 23.0801C24.5889 23.0173 23.0426 20.4926 22.012 19.4191C19.6057 16.9125 17.0824 14.7917 13.6677 13.8562C10.852 13.0848 9.01585 13.4107 6.44076 14.7596C5.86607 15.0606 4.06348 17.3903 4.06348 15.9007C4.06348 14.5931 7.68128 16.7355 8.12864 16.8991C12.361 18.4476 16.5645 19.8927 20.8947 21.1782C21.4114 21.3317 24.4344 22.3289 23.9138 22.6759C22.0811 23.8978 22.4637 27.2544 22.4637 29.1659C22.4637 31.7516 22.2364 32.6304 24.4131 34.0156C25.5475 34.7375 26.7564 34.1311 28.0265 34.2058C29.0012 34.2631 27.4644 34.7227 26.9568 34.6099C24.7435 34.1181 22.7695 31.3573 21.18 29.9267" stroke="white" stroke-width="7" stroke-linecap="round"/>
</svg>
