<svg width="31" height="56" viewBox="0 0 31 56" fill="none" xmlns="http://www.w3.org/2000/svg">
<path d="M3.48206 2.8125C2.25736 4.34337 3.70121 8.63601 3.90997 10.5149C4.12564 12.4559 5.92427 14.2486 6.50122 16.268C7.18865 18.674 9.04492 19.535 9.04492 22.4964C9.04492 25.2614 10.9449 26.8749 11.8263 29.343C12.0887 30.0776 12.6827 31.5495 13.324 31.9343C14.3493 32.5495 13.7583 34.167 14.3938 34.9297C15.1661 35.8564 14.9647 37.45 15.6776 38.3054C16.4011 39.1736 17.1349 40.0167 17.5081 41.2295C18.1515 43.3207 20.762 46.107 22.5004 47.5293C23.7914 48.5856 23.9814 49.8363 25.4958 50.5247C26.4612 50.9635 27.437 52.4341 27.873 53.3061" stroke="white" stroke-width="5" stroke-linecap="round"/>
</svg>
