<svg width="46" height="72" viewBox="0 0 46 72" fill="none" xmlns="http://www.w3.org/2000/svg">
<path d="M39.1841 3.20898C38.8889 3.24588 38.9007 12.3221 38.7562 13.574C38.7034 14.0314 37.9966 15.698 37.6864 16.0701C37.1307 16.7371 37.699 17.8499 37.3774 18.6138C36.5298 20.6269 36.9862 23.4871 36.5929 25.6506C36.3675 26.8903 36.4623 28.4463 36.0937 29.6444C35.7259 30.8395 35.1786 32.2138 34.9526 33.4005C34.6164 35.1655 34.6217 37.0082 34.0492 38.7257C33.203 41.2641 32.0166 43.6348 31.2678 46.2141C29.8509 51.0946 27.6438 55.8349 26.3705 60.7156C25.9241 62.4271 25.4342 64.479 24.54 66.0169C24.3036 66.4235 22.924 69.7213 23.8744 68.4893C27.3411 63.9955 29.5479 58.9208 32.5753 54.1543C36.0349 48.7071 39.1439 43.6413 41.5614 37.6321C43.0173 34.0132 42.7138 35.6898 41.3237 38.0838C40.5151 39.4764 40.1093 40.9058 39.517 42.3867C39.0177 43.6348 37.9729 44.5202 37.5676 45.81C37.0547 47.4419 37.0446 47.0997 37.0446 45.5247C37.0446 43.4327 37.0446 41.3407 37.0446 39.2487C37.0446 39.1633 35.0668 42.5131 34.5009 43.4327C33.9712 44.2934 32.6682 48.8837 33.6213 45.7862C33.9281 44.7891 36.4196 42.7312 35.5707 43.3376C34.833 43.8645 34.901 44.5524 34.6435 45.3821C34.079 47.201 32.8378 48.8242 31.9096 50.4695C30.6662 52.6737 28.5176 54.2915 27.2977 56.4602C27.1819 56.6661 27.9677 53.231 28.2962 52.3951C28.6283 51.5497 30.9332 47.1825 30.3406 47.902C27.6225 51.2025 23.246 53.3143 19.7379 55.6282C19.3635 55.8751 13.6184 59.4007 15.0784 57.8866C18.3119 54.5333 22.49 51.9043 26.109 48.9956C29.7269 46.0878 33.7642 44.0673 37.0208 40.675C37.2774 40.4077 38.6604 39.0117 38.4709 39.2011C36.7835 40.8885 35.1267 42.6088 33.4311 44.2885C27.8159 49.8513 21.3521 54.4657 15.7678 60.0499C15.284 60.5338 9.41916 66.4716 11.988 63.4495C16.3657 58.2992 22.1319 54.5222 27.1788 50.0891C32.3587 45.5392 36.9593 41.0066 40.9909 35.3975C42.5126 33.2802 43.1843 31.0233 40.8007 34.3752C35.5288 41.7888 29.1547 48.3686 23.3514 55.3667C20.1439 59.2346 16.7911 63.1583 13.4143 66.8728C12.7257 67.6302 15.1023 64.1898 15.435 63.7585C22.7437 54.2843 31.0893 45.5725 37.4487 35.3975C40.2156 30.9705 36.1784 36.0823 35.0001 37.537C30.5505 43.0303 25.23 47.8101 20.1896 52.7517C18.5771 54.3325 13.9006 59.2323 15.4112 57.5538C16.8607 55.9433 17.7967 53.957 19.2625 52.3238C22.1758 49.0774 25.2696 45.9937 28.1535 42.7195C32.1163 38.2204 37.1863 33.3311 39.8022 27.8615C40.4453 26.5168 40.2721 27.6336 39.9449 28.3607C38.8654 30.7594 36.6573 32.8797 34.905 34.7794C29.3899 40.7584 23.5011 46.9177 16.9327 51.7294C13.9545 53.9111 10.946 56.0666 7.94656 58.2194C6.41921 59.3157 4.36569 60.3104 3.0969 61.7378C0.508691 64.6495 8.80394 56.4319 11.5838 53.7026C17.2065 48.1822 23.222 43.0863 28.8192 37.537C30.5893 35.782 32.3379 34.0201 34.0016 32.1644C34.263 31.8728 35.5181 30.215 35.9748 30.215C36.5854 30.215 35.3031 32.1042 35.2616 32.1644C33.6034 34.5687 31.6334 36.777 29.4848 38.7494C23.3281 44.4015 17.0324 49.7041 11.1321 55.652C9.47951 57.3179 7.92161 59.046 6.37755 60.8107C5.21893 62.1348 8.86628 58.3226 10.1337 57.1021C15.5496 51.8867 21.384 47.1418 26.3468 41.4833C27.9745 39.6274 29.8143 37.9656 31.244 35.9442C31.9407 34.9593 32.5361 33.4397 33.3835 32.5923C36.8554 29.1204 28.1082 40.8867 25.1581 44.8115C23.0055 47.6754 21.291 50.8199 19.096 53.655C17.7429 55.4028 15.9343 57.3295 15.0784 59.4081C14.1479 61.6679 18.2138 55.6379 19.5002 53.5599C20.2977 52.2716 22.5335 49.1906 23.7793 48.5676" stroke="white" stroke-width="5" stroke-linecap="round"/>
</svg>
