<svg width="70" height="65" viewBox="0 0 70 65" fill="none" xmlns="http://www.w3.org/2000/svg">
<path d="M57.6213 27.8732C52.8908 31.7027 48.6852 35.9331 43.4051 38.999C40.7702 40.5289 39.126 42.3271 37.5094 44.8946C37.1843 45.4111 35.8302 48.035 35.988 48.5081C36.7023 50.6511 49.9817 39.0447 50.7747 38.3333C56.7485 32.9745 62.978 27.2218 66.7738 20.052C67.5207 18.6412 66.1923 21.1175 65.9893 21.3595C63.2459 24.6304 60.0285 27.6269 57.0032 30.6309C53.4278 34.1811 49.608 37.4822 46.1152 41.1147C44.3895 42.9094 41.5226 44.8048 40.2671 46.9391C39.713 47.8811 42.0559 45.5547 42.3115 45.3701C45.6259 42.9764 48.5776 40.2629 51.6067 37.525C53.1407 36.1386 61.0209 29.4198 56.2662 35.433C53.7561 38.6076 51.1977 41.7626 48.6351 44.8946C46.2558 47.8027 43.33 49.9917 40.7425 52.6684C40.5736 52.8431 38.5445 55.4973 38.4603 55.4973C38.2612 55.4973 40.6786 52.5556 40.7901 52.4306C43.2427 49.6807 46.4344 47.5933 49.063 44.9897C50.0442 44.0179 54.2204 41.0289 54.4357 39.522C54.7045 37.6401 52.1239 42.5422 50.8936 43.9913C47.9179 47.4959 44.2087 50.4303 40.8376 53.548C38.182 56.0039 34.7588 58.1333 32.4933 60.9651C30.7855 63.0999 33.8202 59.46 34.1574 59.0633C40.0843 52.0905 46.5468 45.6843 52.2011 38.4522C52.2774 38.3545 55.798 33.7197 54.8636 33.6263C52.1013 33.3501 47.6491 37.8971 45.6397 39.2367C41.2079 42.1912 36.4137 44.2671 31.8277 46.9153C29.5387 48.2371 27.2943 50.014 24.7672 50.8854C23.047 51.4786 25.4505 48.7617 25.623 48.5557C28.6644 44.9229 32.6415 41.9195 36.4159 39.094C41.6874 35.1478 47.0051 31.1003 52.415 27.3502C55.0567 25.5191 57.8496 24.1047 60.1887 21.8825C65.0368 17.2768 51.8421 32.3687 47.1137 37.0971C40.6309 43.5799 33.7894 51.4298 25.5754 55.8302C24.0563 56.644 24.1397 56.1945 24.9573 54.8792C27.9893 50.0017 31.5112 45.4716 35.037 40.9483C39.2498 35.5439 43.9556 30.5173 47.9219 24.9254C49.9309 22.0931 51.4292 18.8788 53.4372 16.0819C53.997 15.3022 54.7115 14.3608 53.7701 15.7728C52.9461 17.0087 52.7575 18.6507 52.1773 20.0044C51.102 22.5135 49.4678 24.678 47.9457 26.9223C41.2671 36.7705 35.3479 46.8798 27.6912 56.0679C25.9796 58.1218 25.6954 57.8912 27.4297 55.8302C31.2739 51.2617 34.6353 46.2416 38.3652 41.5664C44.5706 33.7885 51.4087 26.3084 55.2915 17.0328C55.8154 15.7814 52.6548 20.3055 52.415 20.6938C48.4479 27.1167 43.2689 33.224 37.8898 38.4997C30.1771 46.0641 21.3254 52.5835 13.2135 59.6814C12.1319 60.6278 15.1855 57.584 16.0663 56.4482C20.1961 51.1229 26.1961 46.9343 31.6137 43.0403C37.4805 38.8236 43.3361 34.7853 48.9917 30.2743C51.8477 27.9963 54.2496 24.1235 57.4311 22.4055C58.8889 21.6183 55.7305 26.7308 55.3866 27.2551C51.737 32.8209 46.4915 37.9441 41.5746 42.3747C34.8051 48.4747 27.0925 54.5752 18.7526 58.3976C16.8023 59.2915 17.6081 57.0997 18.0157 56.0203C19.9164 50.986 23.3327 46.2722 26.7165 42.1607C34.8656 32.2592 45.1077 23.419 51.7494 12.3496C53.2358 9.87214 53.1158 10.2097 51.8682 12.6586C49.0441 18.2024 45.2081 23.3745 41.6934 28.4913C40.008 30.9452 38.2846 33.3628 36.4634 35.7183C35.7798 36.6024 33.6875 39.222 34.3952 38.3571C36.4821 35.8064 40.9211 30.2696 42.2878 28.5627C47.5861 21.9452 53.2379 16.1568 55.9096 8.14175C56.469 6.46362 54.6706 11.9136 54.3406 12.5397C51.2026 18.494 47.7865 24.3218 44.1183 29.9653C41.0523 34.6821 37.4057 39.0407 34.1812 43.6584C33.2377 45.0096 30.4242 48.8569 30.7817 47.2481C31.1832 45.4415 34.2881 42.8416 35.3699 41.4713C39.5835 36.1341 43.3941 30.534 47.8744 25.4009C51.7979 20.9057 54.6416 16.5131 57.1458 11.1134C57.389 10.589 60.0128 5.90156 59.4756 7.19084C55.0489 17.8149 47.6536 27.6639 40.0769 36.2413C36.7237 40.0373 33.4872 44.2637 29.6881 47.6285C29.2823 47.9879 27.1321 50.0712 27.5248 49.4115C33.6057 39.1956 41.1376 30.5579 49.0393 21.6685C52.9893 17.2247 56.9596 12.6571 59.9986 7.52366C60.6925 6.35138 61.3329 5.15402 62.0668 4.00527C62.0751 3.99221 63.1233 2.38836 63.1604 2.55513C63.6957 4.96405 61.4005 8.58716 60.4265 10.6141C57.6041 16.4878 54.0932 22.213 50.3468 27.5404C44.7964 35.4332 36.6133 45.7356 26.5977 47.9613C24.6649 48.3908 22.1606 47.9851 20.2028 47.9851C16.1011 47.9851 11.7781 48.9075 7.81709 49.9345C6.39739 50.3025 4.69272 50.5989 3.5142 51.3846C1.2143 52.9179 8.90111 50.008 11.4068 48.8409C19.3498 45.1414 29.527 44.1343 35.8215 37.525C36.7724 36.5267 38.128 36.1623 38.6981 34.8149C39.1437 33.7617 38.4293 35.379 37.9136 35.7658C34.4469 38.3659 31.0693 41.1248 27.7625 43.9437C24.5687 46.6663 20.8828 49.0586 17.3025 51.2182C14.5166 52.8986 11.542 54.9334 8.60159 56.3056C7.42062 56.8567 5.64746 56.9713 4.34625 56.9713C2.85069 56.9713 9.90483 53.8318 10.7412 53.548C14.3663 52.3174 18.0375 51.2545 21.6767 50.0771C24.3511 49.2119 27.9213 48.1638 30.2349 46.5112C30.6055 46.2465 35.7464 41.8955 34.7042 43.6822C34.0301 44.8379 30.9081 45.2892 29.7832 46.2735C28.7296 47.1954 26.049 48.1376 24.6721 48.413" stroke="white" stroke-width="5" stroke-linecap="round"/>
</svg>
