<svg width="57" height="65" viewBox="0 0 57 65" fill="none" xmlns="http://www.w3.org/2000/svg">
<path d="M53.6259 3.08594C53.6259 4.50516 54.3917 9.18922 53.5308 10.2653C52.7707 11.2155 53.4768 12.6415 53.1505 13.7837C52.734 15.2414 51.9143 16.1315 51.9143 17.8489C51.9143 22.3578 49.7498 27.0051 46.6842 30.3772C45.256 31.9483 44.0678 34.0663 42.5953 35.7023C41.0795 37.3866 40.4843 39.7381 39.0532 41.4078C37.4023 43.3338 35.9412 45.4107 34.3699 47.3748C32.9589 49.1386 30.8888 50.6419 29.2349 52.2958C26.5306 55.0001 22.3862 58.5688 18.5372 59.1186C17.3527 59.2878 16.4803 60.3753 15.2089 60.4261C14.0857 60.4711 12.8968 60.854 11.9045 60.854C11.0354 60.854 9.02268 60.8488 8.36236 61.377C7.85515 61.7828 5.27578 61.8199 6.65071 61.7099C9.48387 61.4832 12.3864 60.539 15.2089 60.4261C16.3666 60.3798 16.8261 58.9894 17.8715 58.6907C19.985 58.0869 18.684 57.5275 17.087 57.8824C15.0812 58.3282 12.8186 59.1424 10.597 59.1424C9.24045 59.1424 8.00066 59.9157 6.65071 60.331C5.47126 60.6939 4.41136 60.854 3.13232 60.854" stroke="white" stroke-width="5" stroke-linecap="round"/>
</svg>
