<svg width="58" height="78" viewBox="0 0 58 78" fill="none" xmlns="http://www.w3.org/2000/svg">
<path d="M3.11841 73.5547C4.92054 73.3294 6.85221 72.9543 8.46731 72.057C8.97227 71.7764 10.2805 71.4827 10.8208 71.4151C11.5218 71.3275 12.0804 70.6247 12.8653 70.5593C13.7393 70.4865 13.8986 69.5929 14.5056 69.3231C15.2284 69.0019 16.2507 68.9069 16.8116 68.2058C17.4115 67.4558 18.5476 67.7169 18.9511 66.7081C19.1721 66.1556 20.4888 65.6171 21.0669 65.4244C21.9056 65.1448 22.2121 63.8234 22.8024 63.7127C23.2731 63.6244 24.4765 63.058 24.8468 62.7618C25.895 61.9232 24.5013 63.8543 24.2763 64.1406C22.9497 65.8289 21.0978 67.1765 19.593 68.6812C17.2739 71.0003 14.5967 72.4203 11.6766 73.6498C10.6346 74.0885 9.40451 74.4105 8.25335 74.4105C7.79996 74.4105 5.82783 74.913 6.0187 74.7433C8.78693 72.2827 13.367 72.2309 16.5739 70.7733C16.8674 70.6398 18.6615 70.1314 17.7625 70.1314C16.3646 70.1314 14.6752 70.3912 13.2932 70.6544C12.7756 70.753 10.1049 71.8754 11.7004 71.1774C13.3003 70.4775 15.1191 69.5832 16.5739 68.6575C18.15 67.6545 15.5201 68.0679 14.886 68.2058C12.4931 68.726 11.047 69.6241 8.94276 70.5593C5.61572 72.038 15.7293 67.8808 18.9511 66.1851C20.5934 65.3208 17.4861 67.3334 17.0493 67.5639C15.3682 68.4512 13.7361 68.8775 12.1996 69.9412C10.4351 71.1628 8.8309 71.7114 7.20734 73.103C5.61436 74.4684 11.0787 71.4186 13.1268 70.9634C14.6317 70.629 15.7894 68.601 17.2395 68.4197C18.9635 68.2042 19.5789 66.0765 21.0669 65.8285C23.7555 65.3804 27.0108 61.069 29.1259 59.3385C31.3493 57.5194 33.5661 55.3391 36.0676 53.7756C36.6148 53.4336 37.0416 52.4634 37.3514 51.9214C37.8467 51.0546 39.0926 51.0822 39.4909 50.1859C40.0218 48.9914 40.4704 48.6369 41.4165 47.88C42.0527 47.371 41.9892 46.3093 42.7003 45.7404C43.6576 44.9745 44.3627 42.967 45.1489 41.9843C46.0272 40.8863 47.7079 38.825 48.0254 37.3961C48.1917 36.6476 48.2553 35.9458 48.5722 35.2328C48.8702 34.5622 49.6845 33.4688 49.7608 32.808C49.9715 30.9822 51.0445 28.9481 51.0445 27.2451C51.0445 25.5889 51.4725 23.8077 51.4725 21.9675C51.4725 19.3239 52.7562 16.7389 52.7562 14.17C52.7562 10.5003 54.8957 6.57054 54.8957 2.94922" stroke="white" stroke-width="5" stroke-linecap="round"/>
</svg>
