<svg width="56" height="29" viewBox="0 0 56 29" fill="none" xmlns="http://www.w3.org/2000/svg">
<path d="M52.3468 3.81445C50.7691 5.21692 49.3111 6.37477 47.83 7.85584C46.8313 8.85454 45.404 10.0512 44.2403 10.8512C43.3701 11.4495 41.9135 11.7828 41.2449 12.5629C40.1504 13.8398 39.1681 14.1078 37.8929 15.0353C36.348 16.1589 38.1843 14.8759 38.8914 14.5122C40.2332 13.8222 41.3271 12.7348 42.6 11.9448C44.5266 10.7489 47.8811 8.42582 48.5194 6.19174C48.624 5.8258 49.6205 3.69636 48.9235 5.2646C48.5876 6.02052 47.7003 6.55394 47.2119 7.23775C46.1191 8.76767 44.3195 10.1879 42.7426 11.089C41.3667 11.8752 40.6179 13.3423 39.3193 14.0843C36.5092 15.6901 33.5704 17.3016 30.4282 18.2684C29.3293 18.6065 29.0893 19.3589 27.9559 19.6947C26.7877 20.0409 22.6415 20.6197 21.9413 21.7868C21.4675 22.5765 17.0055 23.0705 15.9743 23.0705C14.0831 23.0705 12.1077 22.8521 10.3164 23.4033C9.27108 23.7249 8.16229 23.4992 7.08327 23.8312C6.1998 24.1031 5.56363 24.7821 4.75352 24.7821C3.09638 24.7821 7.99359 23.9263 9.65074 23.9263C11.616 23.9263 13.5812 23.9263 15.5464 23.9263" stroke="white" stroke-width="7" stroke-linecap="round"/>
</svg>
