<svg width="46" height="41" viewBox="0 0 46 41" fill="none" xmlns="http://www.w3.org/2000/svg">
<path d="M9.05895 8.86362C11.1914 12.1807 13.9025 14.9804 15.8818 18.4441C18.2588 22.6039 19.7965 27.3715 22.5382 31.3052C23.6957 32.966 24.868 36.6674 26.8173 37.5337C28.5878 38.3206 30.8845 37.9616 32.7843 37.9616C35.4962 37.9616 33.791 35.6559 32.6179 34.7761C28.572 31.7417 23.9443 29.5648 19.5666 27.0499C14.3862 24.0739 8.6936 20.5122 4.20928 16.566C2.24588 14.8382 2.48057 12.0809 2.66404 9.69568C2.92451 6.30967 4.67688 5.0772 7.10957 3.08681C9.2743 1.31567 12.4383 5.75678 13.5283 7.15198C18.1956 13.1261 20.1369 22.1716 26.8411 26.1941C28.8154 27.3787 31.0913 27.9863 27.8395 26.3605C23.3304 24.1059 19.0732 20.7172 15.0973 17.6358C11.2668 14.6672 7.48669 10.4829 8.65481 5.22637C9.06361 3.38678 11.7921 7.2073 12.0543 7.57989C14.5403 11.1126 17.8964 15.0773 21.5635 17.4219C24.727 19.4444 26.6412 22.3231 30.4545 23.4126C33.1798 24.1913 35.2509 25.5522 38.157 25.5522C40.4322 25.5522 34.1435 23.4008 32.0711 22.4617C27.8199 20.5354 24.423 16.8832 20.5175 14.4265C17.7453 12.6827 14.1939 8.56136 14.1939 5.01242C14.1939 1.78605 15.7162 5.01328 17.0942 6.39124C20.5059 9.80297 23.3049 13.8223 26.4132 17.517C28.8477 20.4109 30.7898 23.6756 33.1171 26.5982C35.1773 29.1855 37.1358 30.7328 39.7735 32.589C39.8989 32.6772 43.646 35.0043 42.5787 33.4923C41.493 31.9543 39.7288 30.6833 38.3471 29.4272C36.3838 27.6423 34.4502 25.7757 32.4515 24.0307C30.524 22.348 27.887 21.1515 26.3656 19.0384C25.5633 17.9241 24.7473 17.7535 23.608 16.9939" stroke="white" stroke-width="5" stroke-linecap="round"/>
</svg>
