<svg width="48" height="81" viewBox="0 0 48 81" fill="none" xmlns="http://www.w3.org/2000/svg">
<path d="M40.1841 2.6543C38.2218 4.86194 37.8192 8.14443 35.8812 10.3805C33.1966 13.4782 31.4514 17.1895 29.2724 20.5791C27.4598 23.3986 26.5435 26.5107 26.0393 30.0407C25.7116 32.3345 21.6086 33.5858 20.9281 35.6273C20.0824 38.1645 18.7161 40.6954 17.6712 43.1871C14.3704 51.0582 13.7259 59.4912 11.6805 67.6731C10.9367 70.6481 9.49275 74.1475 7.75793 76.6831C7.16762 77.5458 6.80245 77.9823 7.49642 76.8257C10.0831 72.5146 12.0687 67.7775 14.2479 63.2514C14.8206 62.0619 14.9814 60.3482 15.9833 59.4715C16.5424 58.9823 17.7158 57.4372 17.9089 56.7614C18.4693 54.8002 18.2579 52.6133 18.8123 50.5804C19.8956 46.6082 20.7875 42.6917 21.57 38.6227C21.7048 37.9218 23.1064 35.9535 22.4496 35.3658C21.0626 34.1248 16.5295 35.8472 15.1513 36.2692C11.5705 37.3653 7.77415 39.1228 4.85763 41.4992C4.45682 41.8258 2.79077 42.8353 2.97958 43.4961C3.31943 44.6856 20.4764 38.1174 21.9266 37.3152C23.755 36.3037 25.9038 34.9346 27.1566 33.2262C28.8323 30.9412 26.7646 32.6314 25.8729 33.3689C23.7072 35.1597 21.1146 36.8685 18.741 38.3849C17.6011 39.1132 16.3327 39.6028 15.1988 40.3343C15.0023 40.4611 13.137 42.2653 14.0815 41.4041C17.117 38.6364 21.2528 37.3936 24.7555 35.342C29.2364 32.7175 33.4511 29.5484 37.9495 26.9977C38.9231 26.4457 39.9921 26.1152 40.9449 25.5238C41.0845 25.4371 41.4891 25.0335 41.4441 25.191C40.7261 27.7041 37.6353 29.6815 35.8099 31.3244C31.473 35.2276 26.52 38.2028 22.0692 41.9509C20.465 43.3018 15.3394 46.8422 17.2671 46.016C21.3653 44.2596 25.1343 41.8062 29.2724 40.1204C34.0661 38.1674 38.7115 36.0442 42.8942 32.9409C43.3532 32.6005 44.4157 31.4829 43.8452 31.5146C42.8349 31.5707 41.0574 33.406 40.1604 33.8919C36.2345 36.0184 32.37 38.2844 28.3928 40.3105C26.696 41.1749 21.7121 43.9692 23.3767 43.0444C26.5408 41.2866 29.6533 40.0317 33.0998 38.9317C36.7853 37.7555 40.66 36.2881 43.7738 33.9156C45.8596 32.3265 43.3389 33.1355 42.086 33.559C40.6587 34.0415 29.578 36.3635 29.4863 33.7968C29.3303 29.4287 31.7206 25.1443 33.4326 21.1496C34.0558 19.6955 34.7288 18.5383 35.073 16.9893C35.3107 15.9194 33.846 18.8045 33.4326 19.3429C31.9194 21.3136 30.6352 23.6887 29.2724 25.7853C28.9421 26.2935 27.4701 28.1247 28.1075 27.806C29.8178 26.9508 31.249 22.863 32.2678 21.316C33.823 18.9543 35.8236 16.8522 37.5216 14.5883C39.5016 11.9482 37.1494 16.6554 36.6657 17.7263C35.6814 19.9059 33.9441 22.108 32.5055 24.0261C32.1382 24.5159 31.6448 25.3242 32.4817 24.9057" stroke="white" stroke-width="5" stroke-linecap="round"/>
</svg>
