<svg width="48" height="41" viewBox="0 0 48 41" fill="none" xmlns="http://www.w3.org/2000/svg">
<path d="M2.49146 17.4466C4.0929 19.2482 5.42887 20.7054 7.6264 21.6306C8.74966 22.1036 10.3733 22.159 11.3825 22.7717C13.1811 23.8637 14.967 23.6511 16.8503 24.5072C17.9131 24.9903 23.6225 26.0048 19.6079 26.0048C16.8622 26.0048 15.4758 25.5234 13.4032 23.8653C12.6904 23.295 11.2858 21.5339 12.7613 23.0095C15.0494 25.2975 16.4762 28.0298 18.5382 30.4504C21.0715 33.4243 24.3565 36.6576 27.7383 38.0815C30.36 39.1853 26.3923 36.6021 25.8364 36.2747C20.1069 32.9007 13.395 31.7735 8.55354 26.932C6.24789 24.6263 4.94728 22.4197 8.05431 20.7748C8.72604 20.4192 10.7377 17.432 11.8104 18.3975C13.8306 20.2157 15.366 22.8075 17.4921 24.7211C18.6054 25.723 19.8492 26.8685 21.3196 27.2886C22.9875 27.7651 24.0003 28.8705 25.5036 29.333C25.951 29.4707 28.1773 29.7352 28.499 29.333C29.1824 28.4788 25.6209 25.2593 25.1708 24.7449C23.9489 23.3484 21.6412 22.1836 20.6539 20.6322C19.2705 18.4582 17.7969 16.8713 16.0895 14.9742C15.8676 14.7276 14.6508 13.1799 14.5681 13.2626C13.1126 14.718 16.3998 21.146 17.0167 22.534C17.7597 24.2057 18.748 26.3107 20.2498 27.4788C21.336 28.3236 22.2031 27.2413 22.1754 26.2426C22.0869 23.057 19.2908 20.2707 17.4684 17.8745C16.4082 16.4806 15.286 15.0265 14.0451 13.7856C13.4131 13.1537 12.3287 12.6746 12.0006 11.7887C11.6893 10.948 11.9055 9.68627 11.9055 8.79328C11.9055 5.8929 13.6833 8.28865 14.9247 9.57779C18.2681 13.0499 20.3307 18.1789 24.4101 20.7748C30.4158 24.5966 16.0905 9.02385 10.6218 4.46662C10.3252 4.21943 8.12789 2.60592 9.17164 3.30174C11.0416 4.54839 12.881 5.5847 14.5205 7.22427C16.7171 9.42088 19.7731 12.4987 22.6984 13.6905C22.9948 13.8112 24.437 15.0403 24.6478 14.689C25.0572 14.0066 24.0162 13.4403 23.5542 13.2626C22.3515 12.8 20.8471 11.8281 20.0358 10.814C19.0941 9.63678 15.3113 7.10786 17.9914 10.3623C24.3893 18.1312 30.1548 26.3093 39.0541 31.1636C40.7884 32.1095 40.0208 30.9227 39.0304 29.8561C37.0056 27.6755 34.3375 25.9953 32.2076 23.8653C30.5022 22.1599 28.5454 20.3038 26.6447 18.8254C25.8186 18.1829 23.8524 15.7825 22.841 15.7825C22.2106 15.7825 26.4886 19.481 26.8824 19.7764C28.5898 21.0568 30.4517 21.9092 32.2313 23.0332C33.2198 23.6576 34.1399 24.6736 35.4169 24.6736C38.1407 24.6736 30.5398 21.9375 27.8333 21.6306C25.5092 21.3671 23.3453 20.7756 20.9868 20.8699C19.8601 20.915 21.3998 21.658 21.6524 21.8208C23.9246 23.2851 25.9062 24.6967 28.4277 25.7909C32.9092 27.7357 37.6978 28.8256 42.4061 30.0462C42.9487 30.1869 46.5285 30.7119 44.8547 30.7119" stroke="white" stroke-width="5" stroke-linecap="round"/>
</svg>
