<svg width="62" height="60" viewBox="0 0 62 60" fill="none" xmlns="http://www.w3.org/2000/svg">
<path d="M3.19385 2.79297C3.19385 4.8127 3.62176 6.40575 3.62176 8.45091C3.62176 9.45342 3.58189 13.12 4.14476 13.8236C4.40338 14.1469 6.1505 17.8686 6.18923 18.1978C6.39841 19.9758 6.65806 22.0786 7.06883 23.9271C7.35279 25.2049 9.20026 26.7756 10.0404 27.8258C11.0277 29.0598 11.6577 30.2066 12.703 31.368C13.9836 32.7909 14.7028 34.6515 16.1263 36.075C17.0999 37.0486 18.4739 39.116 19.9062 39.5934C21.5223 40.1321 23.0406 42.8046 24.3755 43.8725C25.8393 45.0436 27.4644 45.9316 28.8448 47.0818C29.2188 47.3935 30.3087 48.0353 30.8179 48.1279C32.0603 48.3537 32.077 48.8847 32.9575 49.3878C34.1192 50.0516 37.4645 50.1803 38.1875 51.3372C38.8175 52.3451 42.0948 53.217 43.4176 53.2866C45.0915 53.3747 46.928 54.1424 48.5525 54.1424C49.4955 54.1424 49.636 55.2047 50.5257 55.4024C51.1995 55.5521 52.4328 55.854 53.0456 55.854C54.9835 55.854 56.7872 56.7099 58.8224 56.7099" stroke="white" stroke-width="5" stroke-linecap="round"/>
</svg>
