<svg width="74" height="64" viewBox="0 0 74 64" fill="none" xmlns="http://www.w3.org/2000/svg">
<path d="M3.90088 3.86523C6.60789 4.03442 5.2418 10.9235 7.5619 12.5186C8.7811 13.3568 7.52764 16.0077 8.27509 17.0354C9.21726 18.3309 8.89877 20.9495 9.46373 22.5032C10.6956 25.8909 13.4731 28.6216 14.6938 32.0123C15.1163 33.1861 16.6903 34.2095 17.499 35.1979C18.8598 36.8611 20.519 38.0753 22.0634 39.6196C22.7031 40.2593 22.8008 41.3316 23.5848 41.8543C25.3911 43.0585 27.0292 44.5286 28.9337 45.5866C30.0832 46.2252 31.5701 46.8723 32.5947 47.7262C33.9118 48.8237 36.6652 49.4206 37.7059 50.7216C37.8836 50.9437 39.4794 51.2989 39.8455 51.3635C40.8242 51.5362 41.6476 52.5809 42.8409 52.6472C44.1712 52.7211 46.0755 53.4121 47.4528 53.8358C49.385 54.4304 51.2027 54.9659 53.1107 55.2384C58.9221 56.0686 63.8107 59.9217 69.7993 59.9217" stroke="white" stroke-width="7" stroke-linecap="round"/>
</svg>
