<svg width="40" height="38" viewBox="0 0 40 38" fill="none" xmlns="http://www.w3.org/2000/svg">
<path d="M2.62158 3.31543C5.84602 3.6737 6.00052 7.74356 7.09088 9.92429C7.77539 11.2933 8.35452 12.6104 8.94517 14.0132C9.39307 15.077 9.90201 14.9403 10.5617 15.82C11.03 16.4444 11.2907 17.1592 12.0356 17.5316C12.9202 17.9739 10.8604 14.1859 10.6568 13.728C9.2318 10.5217 7.4536 7.92744 5.71206 4.93199C5.46493 4.50692 4.91126 2.75327 5.71206 4.02862C6.96501 6.02406 7.98579 8.17411 9.27799 10.1382C10.8359 12.5062 12.7729 14.7448 14.1752 17.1988C14.4886 17.7472 15.8005 18.2226 15.245 17.2226C14.2572 15.4445 13.2309 13.8539 12.2496 12.0876C11.6128 10.9414 13.1199 13.5709 13.3432 13.7755C14.0058 14.383 14.7369 15.2942 15.031 16.1766C15.5255 17.66 17.2118 17.7949 17.5985 19.1482C17.9484 20.3728 21.3398 22.087 22.5433 22.4764C23.2478 22.7043 24.7876 23.3689 25.3009 23.8552C25.7883 24.317 25.8389 25.0175 26.2518 25.4718C26.4463 25.6857 27.5244 26.0001 27.488 26.3276C27.4454 26.7107 20.1092 26.3731 19.643 26.3276C15.8382 25.9564 13.3768 25.2949 10.0863 23.4273C7.72213 22.0855 4.86178 19.9158 3.14459 17.7693C2.77156 17.3031 3.26022 15.3545 3.5725 14.9641C4.21952 14.1554 3.90532 12.6945 3.90532 11.6597C3.90532 9.90085 8.75363 11.9061 9.4444 12.5393C11.7799 14.6801 11.5408 17.3358 12.7964 20.004C13.3994 21.2854 11.5247 17.429 10.5617 16.3905C8.27797 13.9276 6.64035 10.3351 5.09396 7.35682C4.25581 5.7426 2.52567 3.61325 5.09396 5.8829C7.46201 7.97559 9.62623 11.3433 11.3462 13.9895C12.4431 15.6769 13.7821 17.369 14.7695 19.1244C15.1456 19.793 15.5009 21.2402 16.5287 21.2402C17.0087 21.2402 14.5823 19.256 14.3892 18.9342C13.4303 17.3362 12.4208 16.2576 11.8217 14.3936C11.2511 12.6184 10.4169 10.5566 9.27799 9.09224C8.86475 8.56093 8.67083 5.96914 9.7059 7.38059C10.8435 8.93187 12.1456 10.9811 13.5571 12.3254C14.2802 13.014 16.0206 14.808 16.4099 15.82C17.8375 19.5318 20.7706 25.2142 24.7779 26.7555C25.833 27.1613 26.133 27.892 27.1077 28.2294C28.3479 28.6587 29.4917 29.358 30.7687 29.7509C32.8847 30.402 30.7728 29.3255 29.6751 28.6573C27.4302 27.2909 24.8495 25.4958 22.9949 23.6412C22.579 23.2253 21.7218 21.8047 22.5433 21.3353C23.5068 20.7847 25.645 22.2976 26.4182 22.833C28.6354 24.3679 29.4798 26.9416 31.5056 28.5622C31.6982 28.7163 32.5028 30.0047 32.5516 30.2977C32.7462 31.465 34.0969 31.415 34.8814 32.1995C36.8063 34.1244 29.7987 30.2378 27.2027 29.4181C22.0815 27.8008 17.0416 25.8455 11.6077 25.5668C11.0227 25.5368 9.67952 25.1843 11.0847 25.4718C13.1602 25.8963 15.2366 26.4338 17.2657 27.0408C21.2506 28.2328 25.3761 28.7688 29.1521 30.5116C30.6712 31.2127 32.255 31.0453 33.8591 31.1297C34.2913 31.1524 36.7255 31.9975 36.8545 32.2233C38.065 34.3416 30.2472 34.9809 28.9619 34.9809C26.7814 34.9809 24.5249 35.1805 23.5893 32.8413" stroke="white" stroke-width="5" stroke-linecap="round"/>
</svg>
