<svg width="69" height="63" viewBox="0 0 69 63" fill="none" xmlns="http://www.w3.org/2000/svg">
<path d="M4.18921 4.00977C4.28332 5.51553 4.98883 7.7691 5.56804 9.14471C5.92513 9.9928 6.71483 10.9589 6.75668 11.7122C6.78282 12.1827 7.06183 14.4382 7.39855 14.7076C7.85527 15.0729 9.65721 19.2734 9.75206 19.8425C10.0204 21.4524 10.452 23.7555 11.2498 25.1914C14.4825 31.0103 19.453 35.9048 24.515 39.9544C25.9419 41.0959 27.2679 42.5815 28.8179 43.5678C29.7095 44.1352 32.7432 46.1432 33.1921 46.9911C33.9844 48.4877 36.45 48.2044 37.5901 49.1545C38.8903 50.238 41.1128 50.7441 42.7013 51.4129C44.4253 52.1388 46.4326 52.5349 48.0502 53.4336C49.2659 54.109 52.4123 54.8481 53.827 54.9313C55.5893 55.0349 57.4058 56.1678 59.1521 56.6667C60.7858 57.1335 63.2665 58.7825 64.9527 58.7825" stroke="white" stroke-width="7" stroke-linecap="round"/>
</svg>
