<svg width="37" height="61" viewBox="0 0 37 61" fill="none" xmlns="http://www.w3.org/2000/svg">
<path d="M33.6306 2.78027C32.7841 2.88608 33.2338 5.86512 33.2027 6.4413C33.1514 7.39009 32.3468 8.05759 32.3468 9.00877C32.3468 10.0622 32.4919 11.1889 32.1329 12.1943C31.1639 14.9075 31.9288 18.2069 30.8491 21.0141C30.301 22.4391 30.1317 24.0626 29.5892 25.5547C29.423 26.0118 27.6873 31.9305 27.6873 30.333C27.6873 28.7174 28.1935 26.851 28.4956 25.2694C29.0617 22.306 29.0704 19.1302 29.8745 16.2357C30.9301 12.4355 31.2249 8.54327 32.1329 4.72965C32.9135 1.45087 32.0954 6.91981 31.9189 7.67749C30.9134 11.9953 30.1086 16.5568 29.4465 20.9428C28.7288 25.698 31.3106 20.1431 31.705 18.5655C32.7688 14.3101 33.6306 10.6333 33.6306 6.20357C33.6306 5.44954 33.7954 4.53186 33.4166 3.85005C33.0872 3.25709 32.1499 2.91758 31.9427 3.85005C31.3582 6.48017 31.9189 14.6271 31.9189 11.9328C31.9189 9.68032 31.491 7.51577 31.491 5.25265C31.491 0.19409 31.1872 5.87555 30.8491 7.70126C30.6159 8.96094 31.0631 13.634 31.0631 10.245C31.0631 9.39245 31.6063 6.08118 30.968 5.44284C30.613 5.08784 29.3514 10.4424 29.3514 11.077C29.3514 12.8605 30.5114 12.9238 30.968 11.1483C31.3592 9.62703 31.491 4.89428 31.491 6.46507C31.491 7.91522 31.491 9.36536 31.491 10.8155C31.491 13.272 31.491 15.7286 31.491 18.1851C31.491 19.6888 30.3243 23.2264 29.1375 24.1759C28.4983 24.6872 28.2273 27.1044 27.9726 27.932C27.5862 29.1879 26.6285 29.8561 26.3323 31.1889C26.1968 31.7985 25.1515 33.6495 24.7395 34.1129C24.4536 34.4346 24.8402 32.6698 24.9059 32.4726C25.7307 29.9981 26.44 27.5181 27.2357 25.0317C28.6896 20.4882 29.8635 15.8622 30.968 11.2434C31.8062 7.73807 29.9466 14.0573 29.5892 14.9995C28.2097 18.6364 27.3918 22.796 25.524 26.2203C25.4536 26.3494 24.5962 28.3006 24.7395 28.2648C25.3933 28.1013 26.5467 23.9166 26.784 23.32C28.3795 19.3085 29.8492 14.92 30.8491 10.7204C31.0034 10.0724 31.0397 9.20538 30.445 10.1499C29.016 12.4195 28.8121 15.7431 27.9726 18.2802C25.3213 26.2931 22.0759 34.1172 20.0325 42.2908C19.6365 43.8747 19.5095 45.398 19.5095 47.0216C19.5095 47.8981 19.9388 45.3219 20.1751 44.4779C20.6619 42.7395 21.9134 41.4662 22.6 39.8184C23.679 37.2287 25.0939 34.8665 26.0232 32.2111C26.7386 30.1673 27.712 28.2545 28.2579 26.149C28.4109 25.5587 28.9652 23.1285 28.2817 25.103C26.6461 29.8281 24.6655 35.0152 21.1736 38.7011C19.564 40.4001 18.1487 41.7536 16.942 43.7647C16.2721 44.8813 16.5556 44.7257 17.1322 43.7647C19.3937 39.9955 21.523 36.2858 24.169 32.7579C24.6905 32.0625 26.9657 26.3199 25.4051 29.501C24.2702 31.8146 23.1067 34.1142 21.863 36.3714C20.5291 38.7922 18.4869 41.3265 17.4412 43.836C16.7149 45.5792 16.8496 44.4999 17.3699 43.4319C18.5257 41.0596 20.148 38.8261 21.4113 36.4902C22.7594 33.9975 24.6037 31.5392 25.6429 28.9067C26.3889 27.0169 26.5646 25.0234 27.5923 23.225C30.0629 18.9013 22.7837 31.9469 20.3653 36.3C19.5836 37.7071 18.7845 39.8382 20.1751 37.2034C21.7888 34.1458 24.0313 31.0202 25.2863 27.8131C27.0752 23.2414 24.9604 29.8064 24.3591 31.0225C22.0754 35.6418 18.7537 39.7514 16.728 44.4779C15.8241 46.5872 12.6849 48.3233 10.7611 49.4227C9.75229 49.9991 8.46094 49.836 7.43285 50.4687C3.48653 52.8972 10.8397 47.3005 11.6169 46.6175C14.185 44.3606 17.0825 42.1213 19.7234 40.0086C21.1559 38.8626 17.8325 43.0773 17.5601 43.4319C14.3147 47.6571 9.65386 50.7676 5.88761 54.5338C5.23604 55.1854 2.46223 58.0708 2.58318 57.8858C3.60872 56.3173 4.97503 55.3784 6.45816 54.2961C8.37582 52.8967 9.91477 50.887 11.5931 49.2087C12.6616 48.1402 13.7068 47.0402 14.8024 45.9994C15.8299 45.0233 15.4929 45.2158 14.8024 46.0945C12.1727 49.4414 8.54567 51.7068 5.43593 54.5338C3.57981 56.2212 3.19786 56.6284 5.38838 54.9855" stroke="white" stroke-width="5" stroke-linecap="round"/>
</svg>
