<svg width="31" height="15" viewBox="0 0 31 15" fill="none" xmlns="http://www.w3.org/2000/svg">
<path d="M3.57095 2.56152C2.89271 2.65842 4.70634 3.9023 4.85469 4.27317C5.22167 5.19061 7.44142 5.58978 8.27799 5.98482C10.7814 7.16698 12.9682 8.868 15.8853 8.9802C17.5582 9.04454 20.8575 9.05579 22.3991 9.74093C23.2587 10.123 24.6771 9.83603 25.6084 9.83603C26.2801 9.83603 27.9901 10.4062 28.3898 10.9058C28.557 11.1147 29.011 11.1198 28.9842 11.1198C28.1046 11.1198 27.225 11.1198 26.3454 11.1198C24.8081 11.1198 23.2707 11.1198 21.7334 11.1198C20.7248 11.1198 18.7381 10.6918 18.7381 10.6918C18.7381 10.6918 21.0361 10.6918 22.1851 10.6918C23.435 10.6918 24.6376 11.4853 25.8224 11.5477C28.5868 11.6932 24.7548 11.1706 23.8968 11.096C20.7693 10.824 18.1779 9.40811 15.1246 9.40811" stroke="white" stroke-width="5" stroke-linecap="round"/>
</svg>
