<svg width="75" height="66" viewBox="0 0 75 66" fill="none" xmlns="http://www.w3.org/2000/svg">
<path d="M3.0542 2.51562C7.83982 2.51563 4.93438 9.91788 7.99896 12.0248C8.62371 12.4543 9.47288 16.7214 9.47288 17.4925C9.47288 18.5177 9.90079 19.4179 9.90079 20.274C9.90079 21.3787 11.1845 22.2131 11.1845 23.2694C11.1845 25.4614 12.8159 27.301 13.7045 28.856C14.4651 30.1871 14.7617 33.9859 16.3195 34.609C17.3729 35.0304 17.2267 36.1343 17.936 36.8437C18.6881 37.5957 19.5483 38.1679 20.3609 38.8644C21.1398 39.532 21.7942 40.0079 22.7381 40.5047C23.7873 41.0569 24.1203 42.014 25.2105 42.4065C26.7875 42.9742 28.166 44.1258 29.2519 45.2117C29.9204 45.8802 30.826 46.0073 31.5341 46.6143C32.2451 47.2237 32.7687 48.2189 33.7688 48.3022C35.4127 48.4392 37.5869 51.4237 39.2365 52.2485C39.982 52.6212 40.0758 53.592 40.9482 53.8413C42.6429 54.3255 44.0896 55.4114 45.7978 55.9808C50.0987 57.4145 53.8746 59.3817 58.0409 60.3075C60.4378 60.8402 62.8478 62.4233 65.2916 62.4233C66.636 62.4233 71.2183 64.3107 71.948 62.8512" stroke="white" stroke-width="5" stroke-linecap="round"/>
</svg>
