<svg width="39" height="31" viewBox="0 0 39 31" fill="none" xmlns="http://www.w3.org/2000/svg">
<path d="M11.6125 3.16797C11.8796 5.83908 14.3724 8.49764 15.5588 10.8704C16.5789 12.9107 18.708 15.6539 20.5986 16.7661C23.2495 18.3254 25.2232 20.6553 27.778 22.424C29.4259 23.5648 29.8197 25.2404 32.0572 25.4194C32.5179 25.4562 35.3107 26.8813 35.5518 26.0375C36.1466 23.9557 32.1157 20.5618 30.6308 19.6426C29.0093 18.6388 27.5781 16.73 25.9475 16.0053C25.3337 15.7325 23.098 13.8773 22.7382 13.2477C22.3349 12.5419 20.4059 12.0137 19.6477 11.3934C18.4739 10.433 17.923 10.0332 17.0802 8.73082C16.5835 7.9632 15.4836 7.84117 15.1309 6.92408C14.8714 6.24935 14.7542 5.74482 14.275 5.21244C14.0375 4.94848 13.6338 3.23869 13.0864 3.78606C12.3823 4.49014 13.7325 7.40556 13.8471 8.20782C14.4706 12.5719 16.6831 17.5153 18.8632 21.3305C19.5009 22.4463 20.1707 24.7917 20.1707 26.085C20.1707 26.505 20.4487 28.2173 19.6953 27.4639C18.3499 26.1185 16.7263 24.9185 15.4875 23.4938C14.1942 22.0065 12.5344 20.8305 10.9468 19.6663C10.7061 19.4898 8.29669 18.7525 9.54424 18.5966C11.346 18.3713 13.4677 19.15 15.0595 19.9041C17.4688 21.0453 20.6614 22.1432 22.6669 23.8979C23.9283 25.0016 25.2934 25.6021 26.8034 26.299C28.9061 27.2695 26.1466 25.8381 25.2819 25.6333C18.0698 23.9252 10.1678 21.9961 2.72142 21.9961C2.28733 21.9961 5.23853 22.4288 5.69303 22.4478C9.58479 22.6099 13.3101 24.1601 17.1516 24.7775C19.8768 25.2155 22.5776 25.7581 25.2819 26.299C26.2179 26.4862 27.4205 27.5589 28.301 27.5589C29.571 27.5589 26.6855 26.2278 26.3041 26.1801C23.5065 25.8304 20.7632 25.5586 17.9836 25.0866C16.5731 24.847 17.0105 24.8545 18.3164 24.6587C20.6529 24.3082 22.9175 24.0618 25.2106 23.47C25.4472 23.4089 27.9799 23.2143 26.5894 22.5191C24.7718 21.6103 22.461 20.4965 20.5035 19.9516C18.5933 19.4199 16.4381 19.2473 14.4652 19.0007C12.8628 18.8004 17.6762 19.4286 19.2911 19.4286C19.6215 19.4286 24.02 19.9004 21.8586 20.2607C20.8479 20.4291 19.9445 21.5131 20.1945 22.638C20.4593 23.8294 24.5292 24.5636 23.3087 24.5636C22.3205 24.5636 16.8109 24.8645 17.1753 24.1357" stroke="white" stroke-width="5" stroke-linecap="round"/>
</svg>
