<svg width="33" height="39" viewBox="0 0 33 39" fill="none" xmlns="http://www.w3.org/2000/svg">
<path d="M4.03576 16.7567C5.52337 18.4302 6.2745 20.7464 7.67301 22.5097C9.79813 25.1892 12.0925 26.9586 14.7336 29.0235C18.1026 31.6575 22.1526 33.5618 25.8593 35.6799C27.5785 36.6623 28.2103 35.8913 26.6438 34.3248C23.7913 31.4724 20.9108 28.8238 18.2519 25.7428C15.248 22.2621 12.0003 18.9997 9.00429 15.5205C8.78506 15.2659 5.93918 11.4775 6.19909 13.167C6.65508 16.1309 8.82318 18.9371 10.4544 21.3686C12.6375 24.6226 15.9492 27.1346 19.2504 29.1661C19.9614 29.6036 25.3164 32.3391 26.1921 31.6385C26.2868 31.5627 22.0568 27.704 21.6752 27.2643C18.8417 23.9996 14.7138 21.4817 11.3578 18.7298C9.7309 17.3957 8.08001 16.4218 6.27041 15.3778C6.03227 15.2404 3.37012 13.4686 3.37012 13.5235C3.37012 15.4612 9.78438 18.7081 11.0963 19.5381C15.4446 22.289 19.9025 25.32 24.5042 27.6209C25.3629 28.0502 27.5252 29.975 27.5709 28.8333C27.6309 27.3334 26.0132 25.157 25.1698 23.9836C20.7749 17.8689 15.7705 11.8348 10.6922 6.27282C9.56847 5.0421 8.21707 4.37371 7.03114 3.25366C5.8207 2.11046 8.95948 5.74811 9.21825 6.10641C12.3673 10.4666 15.878 14.5899 19.1078 18.8962C22.0211 22.7807 24.6306 26.9439 27.5709 30.7827C28.3359 31.7815 31.0422 36.7164 29.3777 33.0173C28.4903 31.0454 26.9746 29.5181 25.8117 27.6446C23.8699 24.5162 21.3705 21.3281 18.561 18.92C17.8354 18.298 9.76374 11.6577 10.0503 14.2367C10.5315 18.5674 14.3494 21.167 15.5894 24.887" stroke="white" stroke-width="5" stroke-linecap="round"/>
</svg>
