<svg width="54" height="63" viewBox="0 0 54 63" fill="none" xmlns="http://www.w3.org/2000/svg">
<path d="M51.0447 2.96582C51.0447 5.04199 51.0447 7.11815 51.0447 9.19432C51.0447 11.3104 50.1889 13.1476 50.1889 15.3753C50.1889 16.4813 50.233 17.5985 50.1889 18.7035C50.1484 19.7155 49.0569 19.9432 48.6912 20.7479C47.873 22.5479 47.838 24.7016 46.1237 26.0731C45.7814 26.3469 45.3591 27.9163 45.0539 28.4503C44.4277 29.5462 44.4726 30.2678 43.5324 31.208C42.3601 32.3803 42.3968 34.4792 41.1076 35.8199C38.336 38.7024 37.0033 42.187 34.261 45.234C33.6317 45.9333 32.6073 46.1745 31.9788 46.803C31.2204 47.5614 30.9327 48.2335 30.0532 48.9663C28.8194 49.9945 26.61 50.9681 25.5839 52.1995C24.0917 53.9901 22.4558 54.1132 20.4727 55.1948C18.6801 56.1726 16.4666 58.1824 14.5058 58.6181C13.5592 58.8285 13.1115 59.4502 11.9145 59.4502C10.0186 59.4502 12.2348 59.5491 12.8654 59.3551C13.9225 59.0299 14.7013 57.7385 15.6706 57.7385C15.7368 57.7385 14.7344 57.7385 14.4582 57.7385C13.5155 57.7385 13.084 58.5263 12.1998 58.5944C10.3814 58.7342 8.55015 59.4502 6.87466 59.4502C5.43322 59.4502 -0.479121 60.5349 4.40228 59.4502" stroke="white" stroke-width="5" stroke-linecap="round"/>
</svg>
