<svg width="25" height="55" viewBox="0 0 25 55" fill="none" xmlns="http://www.w3.org/2000/svg">
<path d="M3.33325 3.07422C3.74828 4.94185 5.47281 6.20958 5.47281 8.42312C5.47281 10.1703 6.66187 12.0679 6.75655 13.772C6.83996 15.2735 7.79379 17.2616 8.06406 18.8832C8.15316 19.4178 8.50167 20.3021 8.80101 20.7137C9.08702 21.107 8.84525 21.8726 8.89611 22.3303C8.95574 22.867 9.68884 22.6498 9.75193 23.1861C9.98794 25.1921 10.153 26.5954 10.584 28.535C11.0583 30.6696 12.0793 32.1562 12.8424 34.2167C13.9102 37.0996 15.4266 39.6228 16.8125 42.3946C18.4544 45.6784 19.6686 49.1868 21.7335 52.2841" stroke="white" stroke-width="5" stroke-linecap="round"/>
</svg>
