<svg width="73" height="36" viewBox="0 0 73 36" fill="none" xmlns="http://www.w3.org/2000/svg">
<path d="M67.612 5.53125C62.407 8.47319 58.1245 12.7491 53.4909 16.4668C51.3335 18.1977 44.4014 21.8394 47.1673 21.8394C47.7053 21.8394 49.6962 20.207 50.0676 19.8188C51.7512 18.0586 53.6212 16.6545 55.4403 15.0404C57.8564 12.8966 62.874 4.67644 61.7876 7.71836C61.2726 9.16043 59.5911 10.3992 58.5308 11.4269C56.0304 13.8504 53.1803 15.8457 50.7332 18.3448C47.4004 21.7486 43.0994 24.4672 40.2732 28.3532C36.4226 33.6477 49.3283 18.6213 55.0124 15.3732C56.5551 14.4917 55.25 15.4304 54.5369 16.229C52.784 18.1924 50.6161 19.8854 48.4511 21.364C45.0303 23.7001 41.2201 27.5692 37.3253 28.9713C37.3124 28.976 41.232 25.1429 42.2701 24.4545C44.8669 22.7324 46.9151 20.4555 49.402 18.6063C50.6483 17.6796 52.7003 16.5667 53.4909 15.183C53.8679 14.5233 53.0117 15.3501 52.6826 15.5634C50.1608 17.1979 47.7298 19.0185 45.1228 20.5082C41.6894 22.4701 37.9064 24.0035 34.7579 26.4038C33.136 27.6403 31.4809 28.852 29.7418 29.9222C28.3867 30.7562 29.5622 30.474 30.3837 29.5894C32.0136 27.8341 34.5302 26.8678 36.3507 25.239C40.242 21.7572 45.1418 19.2055 48.7839 15.5634C51.4574 12.8899 42.7814 20.2143 39.4649 22.0296C37.9228 22.8737 36.2241 23.7095 34.5677 24.3118C33.832 24.5794 35.917 23.5155 36.5646 23.0756C40.5329 20.3802 45.0177 18.6289 48.9741 15.9913C52.2886 13.7816 49.1194 16.0335 47.7141 16.8471C45.0615 18.3829 40.8558 20.9361 37.6582 20.9361C34.8506 20.9361 32.9786 22.5036 30.3837 22.6477C27.9546 22.7827 25.7188 23.8309 23.2043 23.9315C22.848 23.9457 20.5442 24.336 20.304 24.5496C19.3996 25.3534 18.2057 25.3302 16.9044 25.6193C15.2264 25.9922 12.7314 26.1129 11.3654 27.3548C10.5854 28.0638 9.33541 28.0145 8.3462 28.2344C7.55702 28.4097 4.41498 29.0664 6.84851 29.0664" stroke="white" stroke-width="10" stroke-linecap="round"/>
</svg>
