<svg width="48" height="63" viewBox="0 0 48 63" fill="none" xmlns="http://www.w3.org/2000/svg">
<path d="M44.4633 4.14844C44.1645 4.18578 42.9514 8.04943 42.7754 8.66529C42.5215 9.554 41.322 9.28579 40.826 10.3769C40.3588 11.4048 40.4765 12.7761 40.0891 13.8953C39.9536 14.2867 38.5344 16.3263 38.4725 15.2741C38.41 14.2118 38.4725 13.1291 38.4725 12.0648C38.4725 11.5117 36.7609 14.9292 36.7609 15.9398C36.7609 16.0853 36.8601 17.6384 36.3805 17.3186C36.1137 17.1407 36.7609 15.6649 36.7609 15.2741C36.7609 14.1929 37.1366 13.1651 37.1888 12.2788C37.2522 11.2007 37.6167 10.0755 37.6167 9.06942C37.6167 8.49095 38.0446 5.87837 38.0446 7.66682C38.0446 11.4634 36.2033 14.6808 35.4534 18.0556C35.0058 20.0697 33.1273 21.2355 32.9097 22.9766C32.7089 24.5827 30.4372 26.0555 29.9143 27.4934C28.9508 30.1429 27.5958 31.5123 26.3959 33.9121C26.0313 34.6413 25.1618 35.0376 24.8269 35.6237C24.4104 36.3525 24.333 37.6556 23.8284 38.2863C23.345 38.8905 23.2162 39.7068 22.7349 40.1881C22.1556 40.7674 21.2407 41.4512 20.9281 42.2326C20.6096 43.0288 19.6416 43.9739 18.8837 44.2771C17.9989 44.631 18.0655 45.892 17.2909 46.5117C16.2633 47.3338 16.1748 48.1234 15.3177 49.103C13.5374 51.1376 11.4729 53.4747 9.3745 55.165C7.37175 56.7784 5.96296 57.8455 3.81165 58.9212" stroke="white" stroke-width="7" stroke-linecap="round"/>
</svg>
