<svg width="68" height="61" viewBox="0 0 68 61" fill="none" xmlns="http://www.w3.org/2000/svg">
<path d="M3.33336 3.20312C3.33336 5.57837 3.18049 7.20707 4.28428 9.19389C5.0647 10.5986 6.75072 13.1313 7.1608 14.5666C7.6632 16.325 8.58946 18.1534 8.89622 19.8917C9.02761 20.6362 10.0127 21.5114 10.275 22.3641C10.595 23.404 11.1543 24.7265 11.6776 25.6685C12.1637 26.5433 13.015 26.5459 13.3893 27.5941C13.7049 28.4778 15.2112 29.1807 15.3149 29.7337C15.5643 31.0637 17.5808 32.8554 18.5005 33.7751C19.6805 34.955 21.6297 36.0528 22.4943 37.4361C22.9945 38.2363 24.161 38.0168 24.6339 38.91C25.0872 39.7663 25.4994 40.3093 26.4406 40.6454C27.3771 40.9799 27.5435 41.9386 28.3424 42.1669C28.8871 42.3225 29.9466 43.1209 30.482 43.4268C31.2655 43.8746 31.8082 44.8586 32.6216 45.3762C33.2527 45.7778 33.9145 46.44 34.4758 46.9452C37.2138 49.4094 40.9802 50.8726 44.4129 52.3179C45.2937 52.6888 46.0199 52.974 46.8853 53.5065C47.6336 53.967 48.9196 53.8349 49.5241 54.3386C50.5354 55.1814 53.5619 55.0698 54.1598 56.0265C54.936 57.2685 64.334 59.2131 64.9527 57.9758" stroke="white" stroke-width="5" stroke-linecap="round"/>
</svg>
