<svg width="46" height="49" viewBox="0 0 46 49" fill="none" xmlns="http://www.w3.org/2000/svg">
<path d="M31.4818 11.6175C29.2576 12.0623 27.4636 15.7928 26.014 17.2754C21.7715 21.6144 18.5857 26.8028 15.4351 31.9433C13.7775 34.6478 12.9334 37.5186 11.7027 40.2876C11.3461 41.0901 10.9505 41.8536 10.5141 42.6173C9.66924 44.0958 12.2334 39.6764 13.1529 38.2431C16.4276 33.1384 19.2462 27.7803 22.4956 22.6481C25.7729 17.4719 28.9898 12.2048 31.8621 6.79159C32.2746 6.01419 34.4646 2.44767 34.3821 2.72643C33.4486 5.8769 31.0655 8.60684 29.0094 11.0945C25.8612 14.9033 21.948 18.1559 18.4542 21.6496C15.446 24.6579 12.5913 27.873 9.51562 30.8022C8.33514 31.9265 8.02636 32.1048 9.42053 30.6833C12.5005 27.5429 15.7589 24.6766 19.4051 22.2202C21.0152 21.1355 23.7318 16.3801 23.7318 18.3214C23.7318 20.6227 21.396 22.7225 19.9281 24.122C16.653 27.2448 14.1388 30.6304 10.3239 33.2033C8.49481 34.4368 6.20056 37.1186 4.0954 37.7201C2.41108 38.2013 4.07147 36.8782 4.6184 36.2462C7.40303 33.0284 10.9353 30.8556 14.3653 28.4011C15.3518 27.6952 21.4444 23.1529 22.662 23.6941C24.9228 24.6989 19.2963 30.4322 18.8584 30.9448C15.773 34.557 12.8401 37.4642 9.08771 40.3827C8.68857 40.6931 4.14578 44.346 6.09232 42.855C17.0985 34.4248 32.0608 28.9475 39.7547 16.8237C40.6019 15.4888 42.6075 13.1132 42.6075 11.3798C42.6075 10.6741 41.8925 12.6003 41.4664 13.1627C40.1666 14.8784 38.4415 16.2646 36.8544 17.7033C32.2225 21.9024 27.0448 24.6375 21.9013 28.0921C18.7717 30.1941 15.0704 31.7541 12.1069 34.0591C7.97851 37.27 21.5107 29.3463 25.6812 26.1903C27.5387 24.7846 30.2175 22.8926 31.0539 20.6036C32.1124 17.7064 30.9479 18.1927 29.152 19.938C25.8292 23.1672 22.3996 26.2625 19.1199 29.5422C16.8303 31.8318 14.6209 34.5866 12.0593 36.579C8.39797 39.4267 17.8864 29.3606 20.784 25.7386C22.702 23.341 24.898 21.1338 26.751 18.7018C28.5314 16.365 26.7199 20.4134 26.3468 21.1266C24.1107 25.4016 21.9192 28.9359 18.8584 32.6089C17.9978 33.6416 18.2296 33.493 19.1674 32.6803C21.0948 31.0099 24.0953 30.0382 26.3468 28.8291C26.8225 28.5736 29.8299 26.0891 28.629 28.1634C26.5013 31.8385 22.7219 34.9258 19.9281 38.1005C17.87 40.4393 15.074 41.9724 12.9865 44.2339C11.897 45.4142 17.0144 42.349 17.5746 41.9755C21.3693 39.4457 24.8193 36.5671 28.7241 34.2017C29.1257 33.9585 34.311 30.7436 33.0032 29.78C32.2021 29.1897 25.687 33.6405 24.8254 34.1066C19.9573 36.7402 15.2754 40.0039 10.7994 43.2592C10.2754 43.6402 6.81621 46.5706 9.32544 45.2323C13.6902 42.9045 18.7354 41.6469 23.4465 40.1925C27.0632 39.0759 30.1131 37.145 33.5262 35.6281C35.6313 34.6925 29.421 37.7192 27.3691 38.7661C24.2927 40.3357 21.0342 41.5626 17.9788 43.1879C16.549 43.9484 18.999 43.3674 19.31 43.2354C21.2512 42.4119 23.1012 41.356 24.968 40.3827C28.8562 38.3555 32.9802 36.9804 36.7831 34.7723C39.0168 33.4753 39.2685 33.5577 37.0208 34.9625C32.6947 37.6663 28.5852 39.8597 23.3514 39.8597" stroke="white" stroke-width="5" stroke-linecap="round"/>
</svg>
